<svg xmlns="http://www.w3.org/2000/svg" width="47" height="46" viewBox="0 0 47 46" fill="none">
  <path d="M27.1154 3.53846C27.1154 1.58125 25.4998 0 23.5 0C21.5002 0 19.8846 1.58125 19.8846 3.53846V19.4615H3.61538C1.61562 19.4615 0 21.0428 0 23C0 24.9572 1.61562 26.5385 3.61538 26.5385H19.8846V42.4615C19.8846 44.4187 21.5002 46 23.5 46C25.4998 46 27.1154 44.4187 27.1154 42.4615V26.5385H43.3846C45.3844 26.5385 47 24.9572 47 23C47 21.0428 45.3844 19.4615 43.3846 19.4615H27.1154V3.53846Z" fill="#AB3687"/>
</svg>
